<svg xmlns="http://www.w3.org/2000/svg" width="1280" height="853.333"><path style="fill:#000;fill-opacity:1;stroke:none" d="M-15000-8947.638h30000v20000h-30000z" transform="matrix(.04267 0 0 .04267 640 381.766)"/><path style="fill:red;fill-opacity:1;stroke:none" d="m0 744.094-15000-4874v-5126h7734z" transform="matrix(.04267 0 0 .04267 640 394.919)"/><path style="fill:red;fill-opacity:1;stroke:none" d="m0 1052.362 7266-10000H0ZM0 1052.362l15000-4874v9748zM0 1052.362l-15000 4874.001v5125.999h7734zM0 1052.362l7266 10000H0Z" transform="matrix(.04267 0 0 .04267 640 381.766)"/><path style="fill:#000;fill-opacity:1;stroke:none" d="m0 218.375-118.063 363.25H-500L0 744.094l500-162.469H118.062Zm0 525.719 309.031 425.312L191 806.156l309-224.5zm0 0-309 425.343 309-224.5 309 224.5zm0 0-500-162.438 309 224.5-118.031 363.25z" transform="matrix(.60868 0 0 .60868 640 -26.248)"/><path style="fill:red;fill-opacity:1;stroke:none" d="M0 1052.362-500 889.91l308.99 224.516ZM0 1052.362l-.006-525.729L-118.05 889.88ZM0 1052.362l499.996-162.465-381.946-.017ZM0 1052.362l309.021 425.32-118.011-363.257ZM0 1052.362l-309.01 425.328L0 1253.2Z" transform="matrix(.60868 0 0 .60868 640 -213.885)"/></svg>